<?xml version="1.0" encoding="UTF-8" standalone="no"?>
<svg width="296.926mm" height="209.973mm"
 viewBox="0 0 3507 2480"
 xmlns="http://www.w3.org/2000/svg" xmlns:xlink="http://www.w3.org/1999/xlink"  version="1.2" baseProfile="tiny">
<desc>Generated with Qt</desc>
<defs>
</defs>
<g fill="none" stroke="black" stroke-width="1" fill-rule="evenodd" stroke-linecap="square" stroke-linejoin="bevel" >

<g fill="none" stroke="#000000" stroke-opacity="1" stroke-width="1" stroke-linecap="square" stroke-linejoin="bevel" transform="matrix(1,0,0,1,0,0)"
font-family="MS Shell Dlg 2" font-size="34.375" font-weight="400" font-style="normal" 
>
</g>

<g fill="none" stroke="#000000" stroke-opacity="1" stroke-width="1" stroke-linecap="square" stroke-linejoin="bevel" transform="matrix(11.8081,0,0,11.8081,0,0)"
font-family="MS Shell Dlg 2" font-size="34.375" font-weight="400" font-style="normal" 
>
</g>

<g fill="#ffffff" fill-opacity="0" stroke="none" transform="matrix(0.999751,0,0,0.999751,0,0)"
font-family="MS Shell Dlg 2" font-size="34.375" font-weight="400" font-style="normal" 
>
<path vector-effect="none" fill-rule="evenodd" d="M-1,-1 L3508.87,-1 L3508.87,2481.31 L-1,2481.31 L-1,-1"/>
</g>

<g fill="none" stroke="#000000" stroke-opacity="1" stroke-width="1" stroke-linecap="square" stroke-linejoin="bevel" transform="matrix(11.8081,0,0,11.8081,0,0)"
font-family="MS Shell Dlg 2" font-size="34.375" font-weight="400" font-style="normal" 
>
</g>

<g fill="none" stroke="#000000" stroke-opacity="1" stroke-width="1" stroke-linecap="square" stroke-linejoin="bevel" transform="matrix(11.8081,0,0,11.8081,0,0)"
font-family="MS Shell Dlg 2" font-size="34.375" font-weight="400" font-style="normal" 
>
</g>

<g fill="none" stroke="#000000" stroke-opacity="1" stroke-width="1" stroke-linecap="square" stroke-linejoin="bevel" transform="matrix(11.8081,0,0,11.8081,0,0)"
font-family="MS Shell Dlg 2" font-size="34.375" font-weight="400" font-style="normal" 
>
</g>

<g fill="none" stroke="#000000" stroke-opacity="1" stroke-width="1" stroke-linecap="square" stroke-linejoin="bevel" transform="matrix(11.8081,0,0,11.8081,0,0)"
font-family="MS Shell Dlg 2" font-size="34.375" font-weight="400" font-style="normal" 
>
</g>

<g fill="#000000" fill-opacity="0" stroke="none" transform="matrix(0.999751,0,0,0.999751,0,0)"
font-family="MS Shell Dlg 2" font-size="34.375" font-weight="400" font-style="normal" 
>
<path vector-effect="non-scaling-stroke" fill-rule="evenodd" d="M0,0 L3496,0 L3496,2445 L0,2445 L0,0"/>
</g>

<g fill="none" stroke="#001dfe" stroke-opacity="1" stroke-width="29.0551" stroke-linecap="square" stroke-linejoin="bevel" transform="matrix(0.999751,0,0,0.999751,0,0)"
font-family="MS Shell Dlg 2" font-size="34.375" font-weight="400" font-style="normal" 
>
<path vector-effect="none" fill-rule="evenodd" d="M2325.32,1973.4 L2324.25,1983.17 L2328.91,1979.33 L2328.42,1987.11 L2333.54,1980.39 L2332.71,1989.71 L2335.69,1985.16 L2333.27,1973.54 L2341.9,1970.58 L2342.62,1992.97 L2351.39,1974.67 L2362.56,1977.87 L2359.46,1960.99 L2356.51,1958.74 L2372.68,1968.7 L2370.6,1987.31 L2357.46,1992.6 L2349.48,2008.25 L2340.01,2008.89 L2342.63,2014.3 L2350.9,2010.48 L2390.43,1981.03 L2395.59,1991.05 L2418.65,2021.25 L2412.49,2028.97 L2425.78,2039.71 L2438.51,2038.94 L2449.52,2055.63 L2464.05,2090.83 L2468.02,2130.69 L2482.84,2129.58 L2511.88,2144.59 L2504.92,2153.57 L2534.38,2150.17 L2535.25,2140.5 L2505.17,2115.4 L2502.03,2116.02 L2485.68,2090.7 L2443.24,2039.36 L2423.21,1993.62 L2413.17,2001.97 L2403.63,1981.04 L2380.07,1951.92 L2388.7,1956.48 L2395.35,1954.49 L2395.25,1952.71 L2385.75,1933.59 L2383.49,1931.55 L2378.35,1930.96 L2377.9,1930.72 L2377.61,1929.78 L2394.38,1926.29 L2400.02,1935.24 L2403.17,1919.93 L2391.49,1923.06 L2382.04,1905.74 L2369.38,1908.76 L2372.7,1929.25 L2366.39,1946.56 L2342.79,1968.43 L2342.52,1955.16 L2334.86,1952.69 L2338.03,1964.51 L2326.2,1930.99 L2341.1,1922.01 L2343.41,1925.26 L2343.7,1931.5 L2343.92,1932.22 L2344.82,1932.72 L2353.6,1920.56 L2359.19,1932.35 L2363.03,1910.41 L2353.81,1902.78 L2346.42,1919.56 L2310.33,1897.58 L2308.36,1905.21 L2316.24,1911.28 L2312,1927.49 L2308.5,1931.59 L2303.45,1919.24 L2304.19,1932.62 L2295.42,1939.21 L2291.71,1928.04 L2290.18,1936.99 L2272.37,1921.83 L2260.29,1924.89 L2242.18,1897.36 L2221.78,1897.65 L2210.04,1889.16 L2200.35,1893.2 L2203.51,1903.75 L2193.05,1901.87 L2215.23,1925.48 L2216.68,1910.38 L2225.64,1914.08 L2222.24,1925.04 L2231.08,1935.26 L2256.6,1929.76 L2267.87,1936.98"/>
<path vector-effect="none" fill-rule="evenodd" d="M2021.87,1949.88 L2040.13,1941.92 L2081.03,1954.13 L2042.77,1954.21 L2020.14,1949.75 L1981.21,1940.27 L1983.9,1940"/>
<path vector-effect="none" fill-rule="evenodd" d="M2536.51,2149.47 L2582.08,2127.72 L2601.03,2094.38 L2615.89,2110.66 L2638.49,2113.66 L2651.91,2094.15 L2697.28,2083.9 L2710.79,2093.4 L2745.28,2094.05 L2752.59,2114.07 L2724.79,2115.59 L2727.36,2127.14 L2713.12,2137.1 L2712.33,2166.4 L2722.12,2186.9 L2679.63,2206.94 L2642.91,2202.38 L2606.57,2217.42 L2577.14,2189.27 L2540.21,2187.77 L2519.82,2206.92 L2527.48,2216.22 L2514.71,2223.62 L2520.08,2234.22 L2497.01,2229.77 L2463.7,2277.39 L2440.91,2264.88 L2372.5,2284.69 L2343.88,2302.82 L2324.23,2345.75 L2290.2,2360.54 L2282.35,2378.59 L2251.64,2389.03 L2207.75,2390.5 L2190.59,2380.12 L2180.69,2359.61 L2159.36,2361.24 L2138.37,2338.43 L2144.74,2343.79 L2151.81,2331.68 L2181.15,2331.03 L2163.43,2327.22 L2170.4,2314.23 L2167.84,2282.38 L2171.49,2269.34 L2180.01,2266.48 L2182.73,2247.77 L2175.67,2210.49 L2157.32,2184.6 L2139.25,2173.48 L2115.1,2186.95 L2048.13,2129.75 L2019.35,2128.66 L1999.92,2141.97 L1970.69,2133.81 L1973.77,2125.68 L1967.47,2121.73 L1983.37,2100.41 L2026.17,2075.95 L2033.63,2079.72 L2032.2,2069.29 L2046.61,2056.89 L2092.01,2033.53 L2095.36,2028.39 L2097.01,2016.31 L2097.9,2011.93 L2099.28,2010.01 L2099.28,2018.53 L2110.55,2025.14 L2131.8,2016.28 L2152.7,2000.43 L2160.06,2000.99 L2167.74,2002.11 L2180.78,1987.35 L2193.91,1999.9 L2193.03,1982.99 L2207.97,1975.13 L2195.13,1969.47 L2181.54,1972.2 L2185.81,1936.2 L2179.87,1919.84 L2173.96,1915.48 L2161.15,1925.27 L2171.99,1937.65 L2158.33,1938.21 L2160.19,1950.44 L2152.25,1944.5 L2144.44,1949.86 L2127.4,1927.22 L2124.64,1937.73 L2119.16,1937.71 L2123.9,1928.1 L2118.61,1922.42 L2103.44,1929.2 L2107.59,1900.21 L2090.97,1924.8 L2071.66,1916.4 L2070.99,1928.41 L2022.29,1925.42 L1980.35,1940.34 L1817.81,1895.1 L1808.09,1891.39 L1801.04,1886.85 L1794.55,1880.38 L1790.51,1873.46 L1790.65,1857.46 L1798.64,1884.22 L1819.39,1888.43 L1842.1,1867.79 L1844.68,1827.62 L1826.92,1827.58 L1826.29,1841.29 L1794.82,1808.47 L1792.09,1804.63 L1790.33,1800.86 L1790.14,1799.85 L1790.16,1799.45 L1803.1,1811.93 L1834.94,1809.79 L1854.04,1817.99 L1866.71,1803.5 L1933.33,1820.96 L1937.19,1806.76 L1931.33,1800.46 L1906.59,1807.84 L1900.35,1793.46 L1877.84,1781.07 L1845.53,1802.2 L1839.52,1789.38 L1814.31,1781.71 L1797.41,1794.69 L1772.73,1784.52 L1760.28,1794 L1726.61,1786.07 L1649.05,1806.33 L1648.1,1851.67 L1595.05,1929.29 L1544.67,1985.65 L1445.01,2059.71 L1425.14,2082.52 L1432.64,2092.3 L1433.68,2086.19 L1444.06,2091.1 L1451.34,2082.79 L1457.93,2089.13 L1450.7,2154.64 L1435.25,2156.24 L1435.26,2130.73 L1421.76,2108.93 L1372.48,2090.55 L1302.13,2118.72 L1296.62,2132.32 L1268.88,2116.01 L1270.94,2124.66 L1260.76,2129.97 L1265.82,2142.16 L1224.47,2136.96 L1191.76,2118.98 L1195.34,2111.28 L1182.96,2104.94 L1173.17,2078.95 L1161.83,2073.93 L1180.46,2054.08 L1202.98,2059.82 L1202.5,2071.85 L1219.24,2068.93 L1215.64,2049.57 L1225.89,2047.74 L1215.43,2020.52 L1223.47,2005.32 L1236.65,2008.29 L1235.39,1997.34 L1259.89,1995.82 L1258.09,1985.55 L1275.04,1982.54 L1275.14,1945.31 L1313.53,1938.4 L1319.24,1926.28 L1309.56,1913.98 L1332.71,1887.68 L1311.87,1869.24 L1322.62,1854.46 L1311.46,1815.81 L1328.6,1815.67 L1322.69,1808.19 L1354.84,1802.82 L1354.58,1795.04 L1368.48,1791.85 L1371.34,1811.57 L1361.13,1838.03 L1367.32,1840.78 L1383.16,1831.13 L1381.1,1817.62 L1389.35,1807.38 L1396.66,1829.03 L1407.19,1809.57 L1434.34,1850.04 L1448.22,1848.4 L1445.89,1828.27 L1459.65,1829.19 L1461.33,1818.96 L1472.21,1842.9 L1487.84,1852.47 L1497.06,1839.87 L1524.88,1845.37 L1539.13,1837.84 L1513.26,1829.39 L1507.24,1810.73 L1497.61,1814.57 L1487.13,1800.06 L1500.8,1797.01 L1507.5,1745.17 L1500.75,1730.96 L1507.33,1724.19 L1495.46,1726.97 L1492.13,1709.02 L1467.38,1714.89 L1462.4,1695.44 L1449.12,1698.21 L1448.02,1688.8 L1432.75,1687.19 L1440.02,1686 L1447,1664.43 L1444.65,1649.59 L1429.36,1655.54 L1423.48,1640.37 L1439.34,1639.7 L1440.82,1576.61 L1424.85,1579.68 L1424.07,1593.21 L1413,1596.55 L1407.38,1572.58 L1397.39,1574.95 L1395.02,1553.77 L1381.47,1562.05 L1381.57,1549.11 L1371.57,1558.86 L1372.31,1547.22 L1366.14,1549.25 L1372.48,1534.68 L1365.71,1536.68 L1360,1523.51 L1372.56,1519.24 L1382.32,1500.78 L1377.78,1479.71 L1392,1457.76 L1378.37,1453.46 L1394.11,1435.42 L1379.64,1435.45 L1376.21,1405.97 L1361.39,1408.28 L1357.13,1418.34 L1337.74,1407.91 L1330.89,1412.43 L1316.42,1391.89 L1318,1367.69 L1290.55,1366.11 L1274.07,1351.94 L1257.58,1356.9 L1253.92,1379.83 L1242.75,1364.48 L1243.82,1350.1 L1222.01,1357.63 L1234.08,1341.91 L1232.66,1330.16 L1205.58,1339.48 L1200.8,1324.96 L1184.62,1330.1 L1183.06,1307.29 L1162.57,1303.7 L1134.11,1269.55 L1108.48,1269.16 L1099.71,1255.03 L1077.24,1265.09 L1073.11,1275.4 L1051.63,1264.58 L1043.83,1283.34 L1027.42,1276.03 L1017.81,1280.86 L1008.96,1263.77 L996.376,1266.3 L1002.07,1275.74 L991.069,1283 L979.168,1280.21 L970.337,1264.62 L944.976,1265.24 L950.32,1280.66 L960.336,1284.48 L957.6,1297.74 L935.803,1279.31 L921.785,1309.45 L869.368,1320.1 L838.006,1368.42 L776.411,1369.81 L762.98,1376.4 L678.51,1375.04 L663.297,1379.68 L648.881,1405.68 L624.372,1420.21 L595.604,1418.1 L588.345,1391.23 L566.944,1383.58 L556.03,1353.13 L547.041,1346.89 L521.999,1343.32 L510.891,1353.99 L482.344,1358.91 L444.81,1335.19 L417.762,1341.72 L403.065,1322.46 L383.742,1323.58 L360.327,1310.06 L352.254,1323.98 L324.909,1306.2 L316.107,1283.35 L301.895,1282.2 L299.963,1275.88 L287.948,1283.52 L281.027,1304.71 L266.613,1306.85 L252.078,1297.21 L253.944,1311.51 L244.019,1313.76 L234.652,1302.73 L245.097,1286.47 L237.38,1268.6 L208.945,1271.56 L194.71,1265.28 L194.394,1241.06 L184.111,1225.36 L162.504,1226.25 L155.061,1192.46 L142.386,1181.75 L147.797,1176.15 L138.06,1170.46 L126.058,1174.81 L125.947,1166.81 L137.895,1126.19 L171.446,1104.63 L186.083,1057.2 L207.398,1025.73 L220.016,1023.22 L224.075,1003.94 L230.238,999.931 L244.938,1017.78 L260.503,1016.05 L272.989,1031.69 L281.066,1031.26 L278.434,1014.96 L284.393,1008.03 L259.731,987.453 L263.616,981.274 L254.784,982.337 L263.282,972.026 L257.968,968.446 L268.456,933.477 L264.69,896.032 L256.203,885.429 L387.751,747.562 L465.576,694.5 L470.985,682.307 L521.591,679.675 L536.893,656.816 L544.621,600.355 L535.064,596.668 L537.659,585.272 L530.148,585.477 L527.434,576.551 L535.721,565.006 L552.806,568.232 L561.701,560.19 L534.626,534.764 L528.693,500.415 L520.478,492.504 L524.136,479.217 L504.507,459.748 L499.755,437.596 L491.846,437.713 L505.375,403.359 L493.813,379.219 L504.001,379.824 L498.766,367.215 L504.233,358.882 L495.835,347.245 L527.182,338.707 L527.195,346.322 L547.6,351.143 L541.003,361.101 L559.925,366.573 L619.236,327.483 L618.164,310.224 L635.041,293.733 L675.131,292.824 L694.832,300.968 L723.544,295.013 L729.267,300.641 L770.73,285.438 L805.423,302.178 L825.446,299.092 L867.243,308.17 L865.691,300.507 L891.201,312.341 L910.961,311.426 L927.876,329.362 L967.989,329.872 L967.213,342.199 L978.559,351.883 L1016.22,348.801 L1031.6,368.408 L1056.96,376.086 L1065.89,367.839 L1100.21,370.167 L1098.57,398.58 L1109.2,402.127 L1105.38,416.016 L1138.84,413.673 L1146.3,423.27 L1154.83,410.262 L1183.05,421.473 L1171.45,443.888 L1185.2,456.826 L1203.05,439.192 L1202.28,417.185 L1215.15,420.377 L1215.54,430.66 L1225,427.022 L1218.36,436.571 L1235.78,435.32 L1274.63,406.649 L1272.5,423.296 L1287.22,445.788 L1307.67,432.654 L1338.85,441.496 L1334.02,442.882 L1341.12,474.792 L1350.3,469.728 L1352.44,483.376 L1365.82,445.397 L1380.46,438.157 L1396.31,442.945 L1416.94,421.911 L1424.89,423.179 L1431.96,446.785 L1438.19,447.069 L1436.2,465.608 L1445.47,477.806 L1447.2,498.774 L1463.51,489.838 L1476.62,494.903 L1485.24,472.23 L1491.25,478.202 L1518.89,460.664 L1517.75,477.089 L1526.96,484.786 L1541.57,484.724 L1547.29,473.658 L1556.07,478.129 L1565.54,469.909 L1582.68,474.915 L1584.31,469.823 L1589.87,474.942 L1592.81,468.518 L1619.83,493.578 L1617.51,512.516 L1638.32,525.781 L1637.44,534.173 L1652.51,537.605 L1664.05,532.231 L1660.49,524.685 L1670.5,518.231 L1671.33,507.27 L1660.26,493.568 L1666.74,483.452 L1649.17,448.287 L1657.07,445.84 L1649.19,439.934 L1651.06,428.315 L1658.85,430.657 L1659.21,418.752 L1669.12,417.393 L1674.03,405.332 L1667.73,402.944 L1691.48,367.107 L1700.31,368.572 L1701.65,355.217 L1722.86,342.907 L1726.4,318.03 L1758.21,315.327 L1783.51,343.768 L1776.74,331.869 L1806.38,305.576 L1854.35,319.277 L1878.3,315.623 L1893.55,325.439 L1885.97,333.986 L1915.78,336.918 L1961.03,307.447 L1954.09,305.524 L1954.19,286.791 L1966.74,280.096 L1963.09,255.67 L1991.81,258.987 L2016.37,280.043 L2038.32,271.924 L2046.7,273.301 L2047.2,280.899 L2065.03,273.613 L2075.76,258.488 L2076.85,265.28 L2093.62,255.132 L2096.84,244.863 L2116.08,252.418 L2128.35,246.639 L2139.3,254.696 L2140.62,248.585 L2149.64,250.324 L2144.76,262.022 L2157.64,265.349 L2155.39,259.544 L2161.33,262.93 L2178.21,250.131 L2201.41,248.278 L2203.96,259.943 L2217.46,263.993 L2220.4,278.619 L2249.15,306.739 L2241.68,326.804 L2248.29,344.241 L2275.01,369.055 L2272.9,376.921 L2282.57,375.153 L2301.46,391.475 L2303.19,419.164 L2246.47,435.1 L2260.92,440.553 L2263.48,453.657 L2285.03,473.855 L2270.85,501.719 L2290.99,517.656 L2273.17,542.604 L2285.9,549.566 L2299.02,539.897 L2332.3,549.931 L2346.05,545.928 L2355.76,566.148 L2375.81,566.175 L2399.72,547.744 L2409.79,555.898 L2415.45,548.048 L2428.48,550.015 L2424.62,566.366 L2436.28,595.974 L2456.56,588.185 L2473.16,595.931 L2468.16,606.573 L2459.66,605.791 L2460.67,623.775 L2473.34,631.699 L2476.34,661.923 L2489.57,668.26 L2483.97,682.251 L2491.77,694.753 L2490.22,700.904 L2474.72,702.609 L2480.29,715.428 L2474.73,721.657 L2490.43,745.952 L2509.45,755.842 L2517.23,781.569 L2536.49,780.309 L2551.78,758.3 L2592.09,752.104 L2608.05,756.874 L2633.07,793.195 L2644.9,793.761 L2655.77,781.923 L2683.05,792.797 L2678.97,802.215 L2694.51,810.146 L2700.76,796.898 L2731.31,776.918 L2780.96,768.341 L2808.88,745.176 L2833.45,737.581 L2836.45,765.171 L2853.08,777.632 L2863.09,775.766 L2866.26,812.116 L2887.65,836.912 L2918.05,847.01 L2940.14,872.77 L2939.15,881.969 L2969.41,858.377 L2960.62,831.49 L2984.2,827.981 L2992.49,849.461 L3013.09,850.781 L3017.03,859.075 L3033.38,853.924 L3044.15,859.053 L3051.31,845.625 L3052.63,864.099 L3070.62,878.021 L3093.5,881.267 L3097.28,897.7 L3120.34,890.303 L3137.56,869.915 L3159.11,903.467 L3216.92,904.289 L3224.36,931.578 L3254.54,948.207 L3311.58,928.534 L3317.84,940.091 L3297.3,954.665 L3296.11,973.501 L3327.93,999.475 L3335.27,1023.84 L3303.9,1046.7 L3290.26,1081.37 L3243.61,1089.87 L3243.25,1100.67 L3258.76,1102.96 L3274.91,1128.48 L3291.39,1124.77 L3304.81,1130.86 L3309.76,1117.25 L3319.27,1128.38 L3303.56,1151.6 L3271.12,1141.51 L3251.7,1205.55 L3287.15,1214.45 L3288.3,1239.01 L3309.08,1270.15 L3291.56,1276.81 L3291.11,1283.21 L3305.88,1292.13 L3317.32,1278.89 L3324.35,1295.3 L3323.25,1302.98 L3310.88,1303.22 L3295.86,1347.84 L3305.33,1353.39 L3286.26,1356.53 L3296.5,1378.77 L3283.9,1414.42 L3250.01,1418.28 L3235.19,1409.08 L3225.69,1418.29 L3219.8,1407.58 L3177.62,1418.79 L3165.31,1412.25 L3120.38,1417.74 L3119.52,1431.19 L3112.19,1431.84 L3111.96,1466.91 L3092.22,1464.58 L3084.62,1480 L3055.52,1482.2 L3056.1,1489.38 L3036.76,1490.71 L3037.65,1501.83 L3030.45,1502.15 L3032.34,1551.63 L3018.93,1575.96 L3039.97,1574.47 L3040.11,1584.27 L3022.67,1595.91 L3024.11,1625.71 L3010.52,1642.92 L3000.45,1652.69 L3007.81,1642.36 L2993.99,1629.56 L2988.68,1635.87 L2962.07,1631.91 L2929.49,1642.29 L2906.88,1644.08 L2904.41,1638.39 L2894.96,1646.51 L2891.39,1655.01 L2887.32,1658.48 L2880.28,1671.67 L2862.68,1698.86 L2858.71,1702.96 L2860.47,1691.61 L2844.37,1681.98 L2787.72,1719 L2769.76,1761.56 L2762.18,1772.1 L2772.92,1753.29 L2769.3,1744.93 L2751.98,1732.89 L2732.4,1734 L2688.44,1755.25 L2677.06,1770.67 L2670.49,1784.47 L2663.25,1798.16 L2654.59,1811.26 L2643,1815.69 L2649.8,1801.26 L2653.33,1805.87 L2663.05,1798.02 L2671.05,1782.93 L2674.99,1774.27 L2674.78,1772.73 L2668.69,1785.82 L2655.56,1766.17 L2605.38,1771.24 L2520.74,1833.11 L2489.83,1881.25 L2457,1872.14 L2444.27,1883.44 L2418.92,1889.57 L2403.34,1911.87 L2427.97,1998.93"/>
<path vector-effect="none" fill-rule="evenodd" d="M2443.97,1931.52 L2438.25,1932.39 L2438.1,1923.57 L2444.88,1914.27 L2477.3,1901.35 L2484.67,1888.33 L2471.49,1916.17 L2444.01,1931.52"/>
<path vector-effect="none" fill-rule="evenodd" d="M2666.16,1791.36 L2666.07,1790.73 L2666.34,1790.52 L2666.15,1790.88 L2666.16,1791.36"/>
<path vector-effect="none" fill-rule="evenodd" d="M2769.01,1759.52 L2768.92,1759.97"/>
<path vector-effect="none" fill-rule="evenodd" d="M2769.17,1759.15 L2769.3,1758.71 L2769.72,1758.62 L2769.49,1759.02 L2769.17,1759.15"/>
</g>

<g fill="none" stroke="#000000" stroke-opacity="1" stroke-width="1" stroke-linecap="square" stroke-linejoin="bevel" transform="matrix(11.8081,0,0,11.8081,0,0)"
font-family="MS Shell Dlg 2" font-size="34.375" font-weight="400" font-style="normal" 
>
</g>

<g fill="none" stroke="#000000" stroke-opacity="1" stroke-width="1" stroke-linecap="square" stroke-linejoin="bevel" transform="matrix(11.8081,0,0,11.8081,0,0)"
font-family="MS Shell Dlg 2" font-size="34.375" font-weight="400" font-style="normal" 
>
</g>

<g fill="none" stroke="#000000" stroke-opacity="1" stroke-width="1" stroke-linecap="square" stroke-linejoin="bevel" transform="matrix(11.8081,0,0,11.8081,0,0)"
font-family="MS Shell Dlg 2" font-size="34.375" font-weight="400" font-style="normal" 
>
</g>

<g fill="none" stroke="#000000" stroke-opacity="1" stroke-width="1" stroke-linecap="square" stroke-linejoin="bevel" transform="matrix(1,0,0,1,0,0)"
font-family="MS Shell Dlg 2" font-size="34.375" font-weight="400" font-style="normal" 
>
</g>

<g fill="none" stroke="#000000" stroke-opacity="1" stroke-width="1" stroke-linecap="square" stroke-linejoin="bevel" transform="matrix(11.8081,0,0,11.8081,0,0)"
font-family="MS Shell Dlg 2" font-size="34.375" font-weight="400" font-style="normal" 
>
</g>

<g fill="none" stroke="#000000" stroke-opacity="1" stroke-width="1" stroke-linecap="square" stroke-linejoin="bevel" transform="matrix(11.8081,0,0,11.8081,0,0)"
font-family="MS Shell Dlg 2" font-size="34.375" font-weight="400" font-style="normal" 
>
</g>

<g fill="none" stroke="#000000" stroke-opacity="1" stroke-width="1" stroke-linecap="square" stroke-linejoin="bevel" transform="matrix(11.8081,0,0,11.8081,0,0)"
font-family="MS Shell Dlg 2" font-size="34.375" font-weight="400" font-style="normal" 
>
</g>

<g fill="none" stroke="#000000" stroke-opacity="1" stroke-width="1" stroke-linecap="square" stroke-linejoin="bevel" transform="matrix(11.8081,0,0,11.8081,0,0)"
font-family="MS Shell Dlg 2" font-size="34.375" font-weight="400" font-style="normal" 
>
</g>

<g fill="none" stroke="#000000" stroke-opacity="1" stroke-width="1" stroke-linecap="square" stroke-linejoin="bevel" transform="matrix(1,0,0,1,0,0)"
font-family="MS Shell Dlg 2" font-size="34.375" font-weight="400" font-style="normal" 
>
</g>
</g>
</svg>
